<svg width="21" height="23" viewBox="0 0 21 23" fill="none" xmlns="http://www.w3.org/2000/svg">
<path d="M10.55 18.3C9.18333 18.3 7.90833 18.075 6.725 17.625C5.55833 17.175 4.54167 16.5417 3.675 15.725C2.825 14.9083 2.15833 13.95 1.675 12.85C1.20833 11.75 0.975 10.55 0.975 9.25C0.975 7.95 1.20833 6.75 1.675 5.65C2.15833 4.55 2.83333 3.59167 3.7 2.775C4.56667 1.95833 5.58333 1.325 6.75 0.874998C7.91667 0.424999 9.18333 0.2 10.55 0.2C11.9333 0.2 13.2 0.424999 14.35 0.874998C15.5167 1.325 16.525 1.95833 17.375 2.775C18.2417 3.575 18.9167 4.525 19.4 5.625C19.8833 6.725 20.125 7.93333 20.125 9.25C20.125 10.55 19.8833 11.7583 19.4 12.875C18.9167 13.975 18.2417 14.9333 17.375 15.75C16.525 16.55 15.5167 17.175 14.35 17.625C13.2 18.075 11.9333 18.3 10.55 18.3ZM16.275 22.025C15.5917 22.025 14.9417 21.95 14.325 21.8C13.725 21.65 13.125 21.4083 12.525 21.075C11.9417 20.7417 11.325 20.2917 10.675 19.725C10.0417 19.1583 9.35 18.4583 8.6 17.625L12.85 16.55C13.3 17.1667 13.7167 17.6583 14.1 18.025C14.4833 18.3917 14.85 18.65 15.2 18.8C15.5667 18.95 15.95 19.025 16.35 19.025C17.4167 19.025 18.3667 18.5917 19.2 17.725L21 19.875C19.8167 21.3083 18.2417 22.025 16.275 22.025ZM10.55 14.85C11.3333 14.85 12.05 14.7167 12.7 14.45C13.3667 14.1833 13.95 13.8 14.45 13.3C14.95 12.8 15.3333 12.2083 15.6 11.525C15.8833 10.825 16.025 10.0667 16.025 9.25C16.025 8.41667 15.8833 7.65833 15.6 6.975C15.3333 6.29167 14.95 5.7 14.45 5.2C13.95 4.7 13.3667 4.31667 12.7 4.05C12.05 3.78333 11.3333 3.65 10.55 3.65C9.76667 3.65 9.04167 3.78333 8.375 4.05C7.70833 4.31667 7.125 4.7 6.625 5.2C6.14167 5.7 5.75833 6.29167 5.475 6.975C5.20833 7.65833 5.075 8.41667 5.075 9.25C5.075 10.0667 5.20833 10.825 5.475 11.525C5.75833 12.2083 6.14167 12.8 6.625 13.3C7.125 13.8 7.70833 14.1833 8.375 14.45C9.04167 14.7167 9.76667 14.85 10.55 14.85Z" fill="#101010"/>
</svg>
